# xmcd CD database file
# Copyright (C) 1996 Ti Kan
#
# Track frame offsets:
# 	150
# 	15375
# 	26812
# 	35250
# 	51975
# 	68325
# 	81300
# 	92325
# 	106162
# 	118650
# 	133162
# 	147300
# 	158400
# 	168225
# 	183712
#
# Disc length: 2539 seconds
#
# Revision: 1
# Processed by: cddbd v1.4b41PL1 Copyright (c) Steve Scherf et al.
# Submitted via: DiscPlay 3.4.1
#
DISCID=bb09e90f
DTITLE=Doug Sahm - Juke Box Music
DYEAR=1900
DGENRE=
TTITLE0=I Won't Cry
TTITLE1=Money Over Love
TTITLE2=Crazy Baby
TTITLE3=You're Mine Tonite
TTITLE4=Hey Little Girl
TTITLE5=It Hurts to Love Someone
TTITLE6=Buzz, Buzz, Buzz
TTITLE7=My Dearest Darling
TTITLE8=She Put the Hurt on Me
TTITLE9=What's Your Name
TTITLE10=I Don't Believe
TTITLE11=Golly Gee
TTITLE12=The Chicken and the Bop
TTITLE13=Talk to Me
TTITLE14=Goodnight My Love
EXTD=
EXTT0=
EXTT1=
EXTT2=
EXTT3=
EXTT4=
EXTT5=
EXTT6=
EXTT7=
EXTT8=
EXTT9=
EXTT10=
EXTT11=
EXTT12=
EXTT13=
EXTT14=
PLAYORDER=
